<svg width="25" height="25" viewBox="0 0 25 25" fill="none" xmlns="http://www.w3.org/2000/svg">
<path d="M11.5729 23.9583C11.4521 23.9581 11.3323 23.937 11.2187 23.8958C10.9997 23.8156 10.814 23.6642 10.6912 23.4659C10.5684 23.2676 10.5158 23.0338 10.5417 22.802L11.3437 15.4166H5.20833C5.01909 15.4169 4.83335 15.3656 4.67105 15.2683C4.50876 15.171 4.37604 15.0313 4.28715 14.8642C4.19827 14.6972 4.15657 14.509 4.16654 14.3201C4.17651 14.1311 4.23777 13.9484 4.34375 13.7916L12.5625 1.49994C12.6925 1.30758 12.883 1.16416 13.1038 1.09245C13.3246 1.02073 13.563 1.02484 13.7812 1.10411C13.991 1.18198 14.1701 1.32534 14.2921 1.51295C14.414 1.70056 14.4723 1.92245 14.4583 2.14577L13.6562 9.58327H19.7917C19.9809 9.58299 20.1666 9.63426 20.3289 9.73158C20.4912 9.8289 20.624 9.96859 20.7128 10.1357C20.8017 10.3027 20.8434 10.4908 20.8335 10.6798C20.8235 10.8688 20.7622 11.0515 20.6562 11.2083L12.4375 23.4999C12.3419 23.6413 12.2131 23.757 12.0624 23.8369C11.9116 23.9169 11.7435 23.9585 11.5729 23.9583ZM7.15625 13.3333H12.5C12.6454 13.3336 12.789 13.3644 12.9218 13.4236C13.0545 13.4828 13.1734 13.5691 13.2708 13.677C13.3691 13.7864 13.4432 13.9153 13.488 14.0554C13.5329 14.1954 13.5477 14.3434 13.5312 14.4895L13.0625 18.8124L17.8437 11.6666H12.5C12.353 11.6675 12.2075 11.6373 12.073 11.5779C11.9385 11.5185 11.8181 11.4314 11.7198 11.3222C11.6214 11.213 11.5472 11.0842 11.5021 10.9443C11.4571 10.8043 11.4422 10.6565 11.4583 10.5104L11.9271 6.18744L7.15625 13.3333Z" fill="#149211"/>
</svg>
